<?xml version="1.0" encoding="utf-8"?>
<!-- Generator: Adobe Illustrator 27.1.1, SVG Export Plug-In . SVG Version: 6.00 Build 0)  -->
<svg version="1.1" xmlns="http://www.w3.org/2000/svg" xmlns:xlink="http://www.w3.org/1999/xlink" x="0px" y="0px"
	 viewBox="0 0 712 243.56" style="enable-background:new 0 0 712 243.56;" xml:space="preserve">
<style type="text/css">
	.st0{display:none;}
	.st1{fill:#FFCC64;}
	.st2{fill:#FFFFFF;stroke:#000000;stroke-miterlimit:10;}
</style>
<g id="Layer_2" class="st0">
</g>
<g id="Layer_1">
	<g>
		<path d="M712,63.98c0,0-26.12-24.6-91.9-24.6s-91.9,24.6-91.9,24.6l1.64,1.13c-0.55-0.37-1.1-0.75-1.64-1.13v7.12
			c0.61,0.07,1.2,0.3,1.73,0.69c8.91,6.67,37.47,25.4,88.38,22.97c2.07-0.1,3.81,1.55,3.81,3.62c0,1.98-1.58,3.59-3.56,3.63
			c-13.41,0.26-61.57-1.43-90.36-20.91v20.03c0,4.17,1.89,8.12,5.17,10.69c7.57,5.94,24.75,15.39,59.6,18.59
			c0.15-13.08,10.8-23.65,23.92-23.65c13.21,0,23.92,10.71,23.92,23.92c0,0.07-0.01,0.15-0.01,0.22
			c39.16-2.56,57.98-12.8,66.01-19.09c3.28-2.57,5.18-6.53,5.18-10.7L712,63.98L712,63.98z M628.55,102.05c-1.99,0-3.6-1.61-3.6-3.6
			s1.61-3.6,3.6-3.6s3.6,1.61,3.6,3.6S630.54,102.05,628.55,102.05z M622.13,88.75h-4.05c-9.98,0.36-36.93-0.73-63.65-11.01
			c14.11-10.83,65.67-11.13,65.67-11.13c0,0,51.56,0.3,65.67,11.13C659.06,88.02,632.11,89.12,622.13,88.75z M710.36,65.11
			l1.61-1.11C711.44,64.38,710.9,64.75,710.36,65.11z"/>
		<g>
			<path d="M167.61,78.74c-1.92,0-3.84,1.49-6.63,5.15c-2.05,2.68-4.79,5.74-8.13,9.08c-3.26,3.26-7.26,6.27-11.87,8.93
				c-4.42,2.55-9.57,3.84-15.32,3.84c-2.89,0-5.63-1.07-8.39-3.26c-2.59-2.06-3.85-4.75-3.85-8.24c0-3.97,0.91-8.7,2.69-14.06
				c1.79-5.37,4.6-10.71,8.38-15.91c1.87-2.64,3.66-4.79,5.33-6.38c1.73-1.65,3.25-3.01,4.51-4.04c1.46-1.18,2.58-2.26,3.42-3.3
				c1.11-1.35,1.67-2.99,1.67-4.89c0-1.69-0.99-3.21-2.95-4.52c-1.64-1.09-3.46-1.64-5.42-1.64c-1.19,0-2.58,0.56-4.64,1.86
				c-1.65,1.04-3.44,2.39-5.33,4.02c-1.84,1.59-3.75,3.37-5.65,5.28c-2,2-3.64,4-4.82,5.86c-2.71,3.9-5.44,9.18-8.11,15.69
				c-1.54,3.75-2.64,7.78-3.31,12.04c-0.68-1.12-1.48-2.17-2.42-3.14c-3.16-3.25-7.06-5.87-11.61-7.79
				c-4.41-1.86-9.22-3.24-14.3-4.09c-4.95-0.82-9.53-1.49-13.65-1.98c-4.81-0.48-9.77-1.21-14.74-2.17
				c-4.98-0.96-9.55-2.1-13.59-3.37c-3.94-1.24-7.21-2.67-9.71-4.26c-1.32-0.84-2.9-2.12-2.9-3.43c0-0.72,0.34-2.45,2.64-5.85
				c1.95-2.88,4.53-5.94,7.67-9.08c3.16-3.16,6.83-6.3,10.89-9.33c4.01-2.99,8.19-5.45,12.4-7.32c3.99-1.75,7.95-3.25,11.76-4.44
				c3.67-1.15,6.55-1.73,8.58-1.73c1.4,0,1.47,0.34,1.49,0.45c0.2,1.01,0.44,3.12,0.44,7.37c0,2.19-0.12,4.41-0.35,6.61
				c-0.23,2.17-0.55,4.23-0.94,6.14c-0.42,1.99-0.75,3.7-0.99,5.1c-0.36,2.04-0.41,2.81-0.41,3.25c0,2.55,1.8,3.71,3.47,3.71
				c0.83,0,1.7-0.32,3-1.09c1.28-0.77,2.32-2.1,3.15-3.96c0.25-0.49,0.69-1.51,1.73-4.62c0.74-2.23,1.52-4.79,2.37-7.85
				c0.83-2.99,1.58-6.09,2.25-9.23c0.69-3.27,1.04-6.41,1.04-9.34c0-3.78-0.69-6.7-2.11-8.94c-2.81-4.41-9.59-4.97-19.63-1.9
				c-4.07,1.25-8.2,2.76-12.27,4.51c-4.03,1.72-7.89,3.57-11.48,5.49c-3.45,1.84-6.24,3.39-8.43,4.66c-2.46,1.64-5.49,3.69-9.1,6.15
				c-3.7,2.52-7.31,5.45-10.74,8.72c-3.5,3.32-6.48,7-8.88,10.94C1.28,46.53,0,50.93,0,55.46c0,4.93,1.74,9.12,5.17,12.45
				c3.17,3.09,7.37,5.66,12.48,7.65c4.95,1.93,10.6,3.46,16.79,4.55c6.08,1.07,12.35,1.87,18.6,2.36
				c11.7,1.11,20.33,3.19,25.63,6.19c4.78,2.7,7.2,5.48,7.2,8.27c0,3.66-1.2,6.82-3.68,9.65c-2.66,3.04-5.9,5.62-9.63,7.68
				c-3.8,2.09-7.84,3.66-12.02,4.67c-4.2,1.01-7.8,1.53-10.7,1.53c-3.66,0-5.22-0.62-5.82-0.99c-1.3-0.79-2.3-1.53-2.97-2.21
				l-3.84-2.83l-1.03,0.17c-1.58,0.27-3.17,1.33-4.88,3.25c-1.72,1.93-2.59,4.38-2.59,7.3c0,3.22,2.41,5.85,7.18,7.82
				c4.11,1.7,9.87,2.52,17.63,2.52c2.76,0,5.82-0.35,9.1-1.04c3.21-0.68,6.29-1.53,9.14-2.54c2.86-1.01,5.52-2.12,7.89-3.31
				c2.33-1.16,4.22-2.19,5.73-3.14c5.32-3.77,9.42-7.93,12.2-12.36c1.21-1.93,2.16-4.19,2.86-6.73c0.17,0.41,0.34,0.81,0.52,1.2
				c1.68,3.55,3.9,6.58,6.59,9c2.69,2.42,5.66,4.2,8.83,5.29c3.11,1.07,6.23,1.61,9.27,1.61c4.96,0,10.16-1.37,15.48-4.07
				c5.1-2.59,9.77-5.52,13.89-8.72c4.09-3.17,7.57-6.27,10.34-9.21c4.16-4.41,4.6-5.07,4.79-5.35l0.22-0.4
				c0.54-1.24,1.05-2.75,1.58-4.59c0.55-1.93,0.83-3.85,0.83-5.71C172.79,79.22,168.83,78.74,167.61,78.74z"/>
			<path d="M256.74,84.68c-2.85-1.51-6.22-1.81-9.89-0.21c-1.33,0.58-2.78,1.25-4.36,1.99c-1.48,0.7-3.03,1.32-4.63,1.85
				c-1.45,0.48-3.04,0.73-4.73,0.73c-0.46,0-0.98-0.57-1.25-0.91c-0.86-1.08-1.62-2.31-2.27-3.68c-0.69-1.46-1.27-2.89-1.73-4.26
				c-0.55-1.67-0.6-2.16-0.61-2.16c0-0.2,0.02-0.99,0.24-4c0.16-2.32,0.29-4.79,0.37-7.33c0.08-2.48,0.2-4.8,0.36-6.88
				c0.23-3.06,0.25-3.41,0.25-3.62c0-0.36-0.04-1.05-0.13-2.08c-0.11-1.09-0.35-2.23-0.73-3.38c-0.45-1.35-1.19-2.54-2.19-3.54
				c-0.84-0.84-2.35-1.83-4.82-1.83c-4,0-6.56,0.64-8.06,2c-1.51,1.39-2.28,2.95-2.28,4.65c0,1.97,0.47,3.39,1.43,4.3
				c0.02,0.1,0.05,0.3,0.05,0.61c0,0.28-0.04,0.77-0.11,1.46c-0.08,0.78-0.2,1.62-0.35,2.54c-0.17,1.04-0.31,2.05-0.39,3
				c-0.1,1.03-0.13,1.64-0.13,1.83c0,0.48-0.09,1.89-0.71,5.88c-0.47,3.08-1.2,6.37-2.15,9.77c-0.92,3.3-2.12,6.24-3.56,8.75
				c-1.35,2.34-2.49,2.73-3.08,2.79c-0.27-0.24-0.94-0.99-1.98-3.13c-1.42-2.92-2.78-6.33-4.05-10.13
				c-1.28-3.85-2.38-7.66-3.25-11.32c-1.06-4.42-1.28-6.39-1.28-7.27c0-2.19-0.51-4.27-1.51-6.19c-0.88-1.67-2.79-3.65-6.86-3.65
				c-1.14,0-2.44,0.46-4.1,1.46c-1.96,1.18-3.05,2.94-3.05,4.95c0,2.16,0.54,5.96,1.64,11.64c1.08,5.57,2.68,11.43,4.75,17.39
				c2.11,6.07,4.81,11.55,8.02,16.28c3.58,5.28,7.99,7.96,13.1,7.96c2.23,0,4.38-0.86,6.38-2.55c1.66-1.4,3.26-3.04,4.75-4.88
				c1.44-1.79,2.69-3.46,3.69-4.97c0.17-0.26,0.33-0.49,0.47-0.7c0.08,0.07,0.17,0.14,0.26,0.22c1.2,1.03,2.61,2.14,4.19,3.3
				c1.67,1.23,3.46,2.31,5.31,3.19c2.04,0.98,4.01,1.47,5.86,1.47c1.62,0,3.86-0.53,6.86-1.62c2.8-1.02,5.58-2.26,8.29-3.7
				c2.75-1.46,5.21-3.09,7.29-4.82c2.55-2.12,3.84-4.33,3.84-6.57C259.9,88.22,259.49,86.15,256.74,84.68z"/>
			<path d="M315.51,96.53c4.25-1.73,8.97-3.13,14.03-4.16c5.38-1.09,9.85-2.43,13.19-3.93c1.14-0.45,2.6-1.57,3.12-4.3
				c0.27-1.45,0.41-2.93,0.41-4.38c0-1.78-0.98-3.45-2.99-5.11c-2.88-2.37-7.38-3.05-12.83-1.41c-9.83,3.44-18.19,6.68-24.85,9.64
				c-6.61,2.94-12.1,5.52-16.31,7.66c-4.14,2.11-7.42,3.75-9.77,4.88c-0.29,0.14-0.57,0.27-0.83,0.39l36.64-46.97l-0.77-1.43
				c-1.33-2.47-3.21-4.54-5.58-6.15c-2.46-1.67-4.87-2.51-7.16-2.51c-2.63,0-6.2,0.46-10.92,1.4c-4.53,0.91-9.32,1.99-14.22,3.22
				c-4.92,1.23-9.55,2.42-13.89,3.57c-4.1,1.08-7.25,1.88-9.38,2.38c-2.18,0.11-3.12,1.35-3.5,2.1c-0.42,0.84-0.63,1.71-0.63,2.59
				c0,2.26,0.58,4.34,1.71,6.2c1.35,2.22,3.4,3.4,5.93,3.4c2.66,0,6.01-0.46,10.24-1.41c4.03-0.9,8.01-1.95,11.82-3.11
				c3.4-1.01,7.07-2.13,10.92-3.36c-1.42,1.93-3.19,4.13-5.3,6.6c-3.87,4.53-7.84,9.29-11.81,14.15
				c-4.04,4.95-7.64,9.85-10.71,14.57c-3.33,5.12-4.94,9.45-4.94,13.25c0,2.57,1.29,4.94,3.84,7.06c2.41,2.01,5.01,3.03,7.73,3.03
				c2.92,0,6.47-0.73,10.86-2.22c4.13-1.4,8.49-3.12,12.97-5.11c4.39-1.95,8.7-3.94,12.83-5.92
				C309.36,99.21,312.78,97.66,315.51,96.53z"/>
			<path d="M504.56,16.04c-2.22-1.82-3.17-2.28-4-2.44c-1.21-0.23-3.07-0.13-5.06,1.65c-1.15,1.03-2.25,2.3-3.26,3.77
				c-1.01,1.45-1.85,2.97-2.51,4.5c-0.63,1.45-1.02,2.57-1.2,3.4c-1.19,3.69-2.92,8.66-5.13,14.78c-2.26,6.23-4.6,12.66-7.01,19.27
				c-2.41,6.61-4.7,12.79-6.87,18.53c-1.34,3.56-2.45,6.59-3.31,9.07c-3.06-3.22-6.15-6.68-9.22-10.34
				c-4.09-4.86-7.69-9.26-10.6-12.95c-0.91-1.32-2.03-2.12-3.33-2.36c-1.15-0.22-2.93-0.17-4.86,1.28c-1.47,1.11-2.36,2.4-2.63,3.83
				c-0.38,2.04-0.29,3.91,0.28,5.55c0.67,1.94,1.07,2.65,1.29,2.96c1.86,2.95,4.26,6.09,7.14,9.36c2.78,3.17,5.61,6.21,8.4,9.04
				c2.74,2.77,5.06,5.09,6.96,6.96c0.86,0.84,1.43,1.41,1.79,1.79c-2.58,8.72-4.65,15.92-6.16,21.41
				c-1.59,5.79-2.85,10.48-3.78,14.06c-0.95,3.67-1.58,6.38-1.94,8.29l-0.89,4.7c-0.22,1.19-0.51,3.16-0.85,5.86
				c-0.18,1.38-0.31,2.79-0.41,4.2c-0.09,0.41-0.19,0.82-0.29,1.23c-0.82,3.61-1.56,6.98-2.22,10.1c-0.19,0.92-0.38,1.78-0.56,2.58
				c-3.51-4.38-6.27-8.89-8.22-13.47c-2.58-6.04-4.69-11.77-6.26-16.93c-0.36-1.44-1.44-3.43-4.5-4.74c-2.05-0.88-3.69-1.3-5.03-1.3
				c-1.59,0-3.09,0.85-4.59,2.59c-1.37,1.6-2.07,3.3-2.07,5.05c0,4.79,1.41,10.03,4.19,15.59c2.64,5.28,5.58,10.37,8.74,15.11
				c3.1,4.66,6.03,8.79,8.68,12.27c2.47,3.24,3.19,4.5,3.41,4.93c-0.06,0.82-0.36,2.56-1.57,6c-1.15,3.27-2.37,6.74-3.68,10.42
				c-1.31,3.68-2.54,7.11-3.68,10.3c-1.67,4.65-1.86,6.42-1.86,7.34c0,1.14,0.58,2.34,2.02,4.13c1.45,1.81,3.48,2.77,5.86,2.77
				c3.23,0,6.02-1.99,8.28-5.9c1.88-3.24,3.48-6.87,4.75-10.78c1.24-3.81,2.25-7.39,3-10.64c0.13-0.56,0.25-1.06,0.35-1.5
				c4.21,3.34,8.27,6.39,12.11,9.11c8.25,5.84,15.48,7.07,21.5,3.41c1.83-1.11,4.01-3.49,4.01-8.5c0-0.94-0.4-2.12-1.37-4.06
				c-1.56-3.12-3.98-3.58-5.29-3.58c-0.65,0-1.45,0.1-2.45,0.29c-0.85,0.17-1.29,0.2-1.33,0.21c-0.08-0.01-0.92-0.18-4.09-1.72
				c-2.59-1.26-5.36-2.82-8.21-4.64c-2.84-1.81-5.43-3.72-7.69-5.68c-2.61-2.25-2.69-3.31-2.7-3.31c0-0.04,0.05-0.43,0.41-1.78
				c0.33-1.22,0.69-2.56,1.1-4.03c0.4-1.44,0.8-2.81,1.2-4.09c0.4-1.28,0.68-2.17,0.88-2.76c0.99-3.47,1.99-7.43,2.98-11.79
				c0.98-4.34,1.88-8.39,2.7-12.17c0.75-3.48,1.59-7.68,2.47-12.5c1.26-5.17,2.57-10.56,3.93-16.21c1.55-6.45,3.14-12.22,4.74-17.22
				c0.95-3.3,2.1-6.95,3.41-10.86c1.31-3.91,2.78-8.15,4.37-12.61c1.59-4.44,3.22-8.94,4.92-13.53c1.72-4.64,3.39-9.06,4.98-13.16
				c3.72-9.98,7.7-20.39,11.83-30.93l0.13-0.44C507.48,20.78,506.75,17.84,504.56,16.04z"/>
			<path d="M405.03,177.82c-0.35-1.37-1.51-2.59-4.02-4.19c-1.6-1.01-3.23-1.71-4.86-2.08c-0.46-1.06-1.08-2.03-1.88-2.9
				c-1.06-1.16-2.3-2.14-3.67-2.93c-1.3-0.74-2.57-1.3-3.81-1.69c-1.36-0.41-2.3-0.6-3.06-0.6c-2.84,0-5.51,1.34-7.96,3.99
				c-2.11,2.29-4.02,5.12-5.67,8.42c-1.63,3.26-2.93,6.86-3.87,10.7c-0.94,3.85-1.42,7.39-1.42,10.53c0,1.91,0.21,4.69,0.63,8.26
				c0.43,3.72,1.39,7.45,2.86,11.07c1.51,3.73,3.72,7.07,6.56,9.9c3.08,3.09,7.31,4.66,12.55,4.66c3.08,0,5.96-0.83,8.56-2.47
				c2.49-1.57,4.68-3.75,6.51-6.49c1.77-2.65,3.19-5.77,4.24-9.25c1.05-3.48,1.58-7.19,1.58-11.02c0-2.86-0.2-6.38-0.62-10.79
				C407.24,186.55,406.34,182.09,405.03,177.82z M391.93,201.83c-0.23,2.05-0.66,4.18-1.27,6.34c-0.58,2.03-1.38,3.82-2.37,5.31
				c-0.98,1.47-1.8,1.47-2.11,1.47c-0.83,0-1.38-0.3-1.9-1.04c-0.82-1.16-1.48-2.6-1.97-4.29c-0.52-1.78-0.86-3.71-1.01-5.74
				c-0.16-2.11-0.24-4.07-0.24-5.83c0-1.75,0.08-3.58,0.24-5.44c0.14-1.76,0.48-3.42,0.99-4.94c0.44-1.32,1.06-2.35,1.91-3.13
				c0.67-0.63,1.65-0.93,2.92-0.93c0,0,0.08,0.01,0.22,0.07c0.66,0.27,1.43,0.41,2.33,0.43c0.93,2.01,1.57,4,1.92,5.93
				c0.46,2.54,0.7,4.99,0.7,7.29C392.28,198.2,392.16,199.72,391.93,201.83z"/>
			<path d="M336.24,185.04c2.19-1.64,5-3.49,8.37-5.49c3.43-2.04,7.15-4.25,11.16-6.62c3.96-2.34,7.73-4.62,11.21-6.77
				c3.49-2.15,6.45-4.19,8.82-6.05c3.07-2.41,4.39-4.25,4.39-6.12c0-2.99-1.65-4.34-2.64-4.88c-1.27-0.69-2.7-1.04-4.26-1.04
				c-1.79,0-4.08,0.53-7.01,1.63c-2.67,1-5.63,2.27-8.78,3.76c-3.12,1.48-6.42,3.15-9.8,4.96c-3.37,1.81-6.45,3.49-9.24,5.05
				c-2.89,1.62-5.22,3.01-7.14,4.26c-0.11,0.08-0.23,0.15-0.33,0.22c-0.08-0.46-0.17-1-0.27-1.61c-0.58-3.46-1.28-7.36-2.09-11.55
				l-2.88-16.34c0.18-1.14,1.27-3.41,5.99-7.01c4.37-3.34,9.42-6.57,15.01-9.61c3.59-1.94,7.12-3.69,10.55-5.22l16.12-7.32
				c1.73-0.7,3.47-1.43,5.24-2.22c4.39-1.95,8.7-3.94,12.83-5.92c4.01-1.93,7.44-3.48,10.17-4.6c4.25-1.73,8.97-3.13,14.03-4.16
				c5.38-1.09,9.85-2.43,13.19-3.93c1.14-0.45,2.6-1.57,3.12-4.3c0.27-1.45,0.41-2.93,0.41-4.38c0-1.78-0.98-3.45-2.99-5.11
				c-2.88-2.37-7.37-3.05-12.83-1.41c-9.83,3.44-18.19,6.68-24.85,9.64c-6.61,2.94-12.1,5.52-16.31,7.66
				c-4.14,2.11-7.42,3.75-9.77,4.88c-0.29,0.14-0.57,0.27-0.83,0.39l36.64-46.97l-0.77-1.43c-1.33-2.47-3.21-4.54-5.58-6.15
				c-2.46-1.67-4.87-2.51-7.16-2.51c-2.63,0-6.2,0.46-10.92,1.4c-4.53,0.91-9.32,1.99-14.22,3.22c-4.92,1.23-9.55,2.42-13.89,3.57
				c-4.1,1.08-7.25,1.88-9.38,2.38c-2.18,0.11-3.12,1.35-3.5,2.1c-0.42,0.84-0.63,1.71-0.63,2.59c0,2.26,0.58,4.34,1.71,6.2
				c1.35,2.22,3.4,3.4,5.92,3.4c2.66,0,6.01-0.46,10.24-1.41c4.03-0.9,8.01-1.95,11.82-3.11c3.4-1.01,7.07-2.13,10.92-3.36
				c-1.42,1.93-3.19,4.13-5.3,6.6c-3.87,4.53-7.84,9.29-11.81,14.15c-4.04,4.95-7.64,9.85-10.71,14.57
				c-3.33,5.12-4.94,9.45-4.94,13.25c0,0.33,0.02,0.65,0.06,0.98c-2.17,1.23-4.31,2.49-6.35,3.8c-5.53,3.55-10.26,6.9-14.08,9.97
				c-2.4,1.93-3.88,3.11-4.79,3.82c-0.79-0.82-1.75-1.55-2.97-1.55c-2.68,0-4.69,1.36-5.53,3.74c-0.58,1.65-0.88,3.29-0.88,4.88
				l6.66,45.61c-0.57,0.33-1.19,0.66-1.85,0.99c-1.42,0.71-2.77,1.52-4.01,2.41c-1.32,0.94-2.47,2-3.4,3.13
				c-1.2,1.43-1.81,3.12-1.81,5.03c0,1.92,0.74,3.75,2.2,5.43c1.53,1.76,3.49,2.7,5.68,2.7c2.22,0,4.37-0.33,6.4-0.98
				c0.37-0.12,0.69-0.22,0.97-0.3c0.07,0.34,0.16,0.75,0.26,1.24c0.49,2.45,1.1,5.56,1.84,9.31c0.75,3.85,1.67,7.94,2.73,12.15
				c1.07,4.29,2.2,8.38,3.34,12.14c1.19,3.91,2.54,7.21,4.02,9.82c0.69,1.22,2.8,4.94,6.21,4.94c1.65,0,3.33-0.82,5.14-2.51
				c1.85-1.73,2.75-3.41,2.75-5.12c0-1.56-0.58-2.54-1.11-3.12c-0.97-1.18-2.43-3.76-4.01-9.34c-1.37-4.82-2.59-9.87-3.64-15.03
				c-1.05-5.14-1.86-9.91-2.42-14.18c-0.61-4.57-0.78-6.36-0.82-7.06C334.03,186.92,334.64,186.24,336.24,185.04z"/>
		</g>
		<path class="st1" d="M616.89,116.83c7.32,0,13.28,5.96,13.28,13.28c0,7.32-5.96,13.28-13.28,13.28s-13.28-5.96-13.28-13.28
			C603.62,122.79,609.57,116.83,616.89,116.83 M616.89,106.19c-13.21,0-23.92,10.71-23.92,23.92s10.71,23.92,23.92,23.92
			c13.21,0,23.92-10.71,23.92-23.92S630.11,106.19,616.89,106.19L616.89,106.19z"/>
		<path class="st1" d="M617.44,164.72h-1.09c-2.58,0-4.69-2.11-4.69-4.69v-22.32c0-2.58,2.11-4.69,4.69-4.69h1.09
			c2.58,0,4.69,2.11,4.69,4.69v22.32C622.13,162.61,620.02,164.72,617.44,164.72z"/>
		<path class="st1" d="M616.89,157.03c-20.59,0-37.28,16.69-37.28,37.28c0,20.59,16.69,37.28,37.28,37.28
			c20.59,0,37.28-16.69,37.28-37.28C654.17,173.72,637.48,157.03,616.89,157.03z M643.46,175.25l-0.55,0.36
			c-0.27,0.14-0.58,0.24-0.91,0.31l-0.15,0.02c-0.47,0-0.87-0.03-1.23-0.09c-0.27-0.04-0.6-0.07-0.97-0.07
			c-0.27,0-1.03,0.12-3.13,0.93c-1.66,0.64-3.41,1.46-5.21,2.43c-1.79,0.97-3.41,2.01-4.81,3.08c-1.51,1.16-1.86,1.88-1.92,2.25
			l0.92,5.23c0.26,1.34,0.48,2.59,0.67,3.7c0.03,0.2,0.06,0.37,0.09,0.52c0.03-0.02,0.07-0.05,0.11-0.07
			c0.61-0.4,1.36-0.85,2.29-1.36c0.89-0.5,1.88-1.04,2.96-1.62c1.08-0.58,2.14-1.12,3.14-1.59c1.01-0.48,1.96-0.88,2.81-1.2
			c0.94-0.35,1.67-0.52,2.24-0.52c0.5,0,0.96,0.11,1.36,0.33c0.32,0.17,0.85,0.61,0.85,1.56c0,0.6-0.42,1.19-1.4,1.96
			c-0.76,0.59-1.71,1.25-2.82,1.94c-1.11,0.69-2.32,1.42-3.59,2.17c-1.28,0.76-2.47,1.47-3.57,2.12c-1.08,0.64-1.98,1.23-2.68,1.76
			c-0.51,0.38-0.71,0.6-0.78,0.69c0.01,0.22,0.07,0.8,0.26,2.26c0.18,1.37,0.44,2.9,0.78,4.54c0.34,1.65,0.73,3.27,1.16,4.81
			c0.5,1.79,0.97,2.61,1.28,2.99c0.17,0.18,0.36,0.5,0.36,1c0,0.55-0.29,1.09-0.88,1.64c-0.58,0.54-1.12,0.8-1.64,0.8
			c-1.09,0-1.77-1.19-1.99-1.58c-0.47-0.84-0.91-1.89-1.29-3.15c-0.37-1.21-0.73-2.51-1.07-3.89c-0.34-1.35-0.63-2.66-0.87-3.89
			c-0.24-1.2-0.43-2.2-0.59-2.98c-0.03-0.16-0.06-0.29-0.08-0.4c-0.07,0.02-0.16,0.05-0.24,0.07c0.01,0.18,0.02,0.37,0.02,0.56
			c0,2.5-0.46,4.5-1.38,5.96c-0.89,1.42-2.2,2.75-3.91,3.96c-0.48,0.3-1.09,0.63-1.83,1.01c-0.76,0.38-1.61,0.74-2.53,1.06
			c-0.91,0.32-1.9,0.6-2.93,0.81c-1.05,0.22-2.03,0.33-2.92,0.33c-2.48,0-4.33-0.26-5.65-0.81c-1.53-0.63-2.3-1.47-2.3-2.5
			c0-0.93,0.28-1.72,0.83-2.34c0.55-0.62,1.06-0.96,1.56-1.04l0.33-0.06l1.23,0.91c0.21,0.22,0.53,0.45,0.95,0.71
			c0.19,0.12,0.69,0.32,1.86,0.32c0.93,0,2.08-0.16,3.43-0.49c1.34-0.32,2.63-0.82,3.85-1.5c1.2-0.66,2.23-1.49,3.09-2.46
			c0.79-0.91,1.18-1.92,1.18-3.09c0-0.89-0.78-1.78-2.31-2.65c-1.7-0.96-4.46-1.63-8.21-1.98c-2-0.16-4.01-0.41-5.96-0.75
			c-1.98-0.35-3.79-0.84-5.38-1.46c-1.64-0.64-2.98-1.46-4-2.45c-1.1-1.07-1.65-2.41-1.65-3.99c0-1.45,0.41-2.86,1.22-4.19
			c0.77-1.26,1.72-2.44,2.84-3.5c1.1-1.05,2.25-1.98,3.44-2.79c1.15-0.79,2.13-1.44,2.91-1.97c0.7-0.41,1.59-0.9,2.7-1.49
			c1.15-0.61,2.39-1.21,3.68-1.76c1.3-0.56,2.63-1.04,3.93-1.44c3.21-0.98,5.39-0.8,6.29,0.61c0.45,0.72,0.67,1.65,0.67,2.86
			c0,0.94-0.11,1.94-0.33,2.99c-0.21,1.01-0.45,2-0.72,2.96c-0.27,0.98-0.52,1.8-0.76,2.51c-0.33,1-0.47,1.32-0.55,1.48
			c-0.27,0.6-0.6,1.02-1.01,1.27c-0.41,0.25-0.69,0.35-0.96,0.35c-0.53,0-1.11-0.37-1.11-1.19c0-0.14,0.02-0.39,0.13-1.04
			c0.08-0.45,0.19-1,0.32-1.63c0.13-0.61,0.23-1.27,0.3-1.96c0.08-0.7,0.11-1.41,0.11-2.12c0-1.36-0.08-2.03-0.14-2.36
			c-0.01-0.04-0.03-0.15-0.48-0.15c-0.65,0-1.57,0.19-2.75,0.55c-1.22,0.38-2.49,0.86-3.77,1.42c-1.35,0.6-2.68,1.39-3.97,2.35
			c-1.3,0.97-2.47,1.98-3.49,2.99c-1.01,1.01-1.83,1.98-2.46,2.91c-0.74,1.09-0.85,1.64-0.85,1.87c0,0.42,0.5,0.83,0.93,1.1
			c0.8,0.51,1.85,0.97,3.11,1.37c1.29,0.41,2.76,0.77,4.35,1.08c1.59,0.31,3.18,0.54,4.72,0.7c1.32,0.16,2.79,0.37,4.37,0.64
			c1.63,0.27,3.17,0.71,4.58,1.31c0.87,0.37,1.65,0.82,2.36,1.34c0.4-0.28,0.83-0.54,1.28-0.77c0.21-0.11,0.41-0.21,0.59-0.32
			l-2.13-14.61c0-0.51,0.09-1.03,0.28-1.56c0.27-0.76,0.91-1.2,1.77-1.2c0.39,0,0.7,0.23,0.95,0.5c0.29-0.23,0.77-0.6,1.54-1.22
			c1.22-0.98,2.74-2.06,4.51-3.19c1.78-1.14,3.71-2.19,5.76-3.12c2.11-0.96,4.11-1.45,5.95-1.45c0.85,0,1.75,0.34,2.67,1.02
			c1,0.73,1.5,1.61,1.5,2.61C644.05,174.59,643.84,174.99,643.46,175.25z"/>
	</g>
	<path class="st2" d="M-1140.47,994.15"/>
	<g>
	</g>
	<g>
	</g>
	<g>
	</g>
	<g>
	</g>
	<g>
	</g>
	<g>
	</g>
	<g>
	</g>
	<g>
	</g>
	<g>
	</g>
	<g>
	</g>
	<g>
	</g>
</g>
</svg>
